<svg xmlns="http://www.w3.org/2000/svg" width="112.966" height="93.466" viewBox="0 0 112.966 93.466"><g transform="translate(0 -32.112)"><g transform="translate(37.669 32.112)"><g transform="translate(0 0)"><path d="M197.352,33.084A6.719,6.719,0,0,0,193,32.151a17.335,17.335,0,0,0-7.773,3.265q-3.031,2.332-7,5.6L174.5,44.276c-.777.777-1.555,1.4-2.332,2.176a2.706,2.706,0,0,1-2.332.777c-.466-.155-1.088-.311-1.71-.466l-29.07-10.882c-.933-.311-1.865-.622-2.954-.933a4.9,4.9,0,0,0-4.664.777,13.89,13.89,0,0,0-4.042,4.508,3.676,3.676,0,0,0,.777,4.975,11.338,11.338,0,0,0,1.71,1.4c5.285,3.731,10.726,7.306,16.012,11.037A24.7,24.7,0,0,1,151.183,62c.311.466.622.777.933,1.244l-10.1,9.638c-1.088,1.088-2.176,2.021-3.265,3.109-.155,0-.311-.155-.466-.155l-1.71-.777c-1.4-.622-2.643-1.4-4.042-2.021a4.482,4.482,0,0,0-4.975.622,29.845,29.845,0,0,0-2.332,2.176,3.247,3.247,0,0,0-.311,4.664,6.762,6.762,0,0,0,.933,1.088l2.954,3.731c3.42,4.508,7,9.016,10.571,13.369a5.112,5.112,0,0,0,4.975,2.021,5.831,5.831,0,0,0,3.886-3.731,7.235,7.235,0,0,0,.155-5.13l-.311-1.4-.933-3.731c4.2-3.265,8.394-6.374,12.436-9.638l2.021-1.555.466.777a24.007,24.007,0,0,1,2.643,5.285l7.151,18.344c.466,1.088.777,2.176,1.244,3.109a3.918,3.918,0,0,0,3.575,2.643,4.139,4.139,0,0,0,1.865-.466,3.125,3.125,0,0,0,1.244-.622,8.2,8.2,0,0,0,4.664-5.285,12.871,12.871,0,0,0,.155-4.819l-3.731-27.2c-.311-2.176-.622-4.508-.933-6.685a2.217,2.217,0,0,1,.933-2.332l3.265-2.8c2.643-2.176,5.13-4.353,7.773-6.529A25.249,25.249,0,0,0,196.73,43.5a16.323,16.323,0,0,0,2.332-4.975A4.649,4.649,0,0,0,197.352,33.084ZM196.109,37.9a17.5,17.5,0,0,1-2.021,4.2,18.954,18.954,0,0,1-4.2,4.664c-2.487,2.176-5.13,4.353-7.773,6.529l-3.109,2.643a5.314,5.314,0,0,0-2.176,5.285c.311,2.176.622,4.353.933,6.685l3.731,27.2a8.619,8.619,0,0,1-.155,3.575,5.5,5.5,0,0,1-2.954,3.265,7.58,7.58,0,0,1-1.088.466c-.933.311-1.244.155-1.555-.622-.466-.933-.777-2.021-1.244-3.109l-6.84-18.344a40.159,40.159,0,0,0-2.954-5.752l-.933-1.555-1.4-2.021-4.819,3.575c-4.353,3.265-8.705,6.685-12.9,9.949a1.955,1.955,0,0,0-.777,2.332c.311,1.4.777,2.8,1.088,4.2l.311,1.4a4.632,4.632,0,0,1-.155,3.265,3.287,3.287,0,0,1-2.176,1.865,1.57,1.57,0,0,1-.777-.311,1.873,1.873,0,0,1-.777-.777c-3.575-4.508-7-8.861-10.415-13.369l-2.954-3.731a6.582,6.582,0,0,1-.777-1.088.481.481,0,0,1-.155-.311l.311-.311a22.074,22.074,0,0,1,2.021-1.865,1.393,1.393,0,0,1,1.71-.155c1.4.622,2.643,1.244,4.042,2.021l1.71.777.933.466a2.14,2.14,0,0,0,2.487-.311c1.244-1.244,2.487-2.332,3.731-3.575l10.726-10.1L156,63.708l-.777-1.088c-.155-.311-.311-.466-.466-.777a16.284,16.284,0,0,0-1.244-1.71,25.763,25.763,0,0,0-5.907-4.975c-5.285-3.575-10.726-7.306-16.012-11.037a8.544,8.544,0,0,1-1.4-1.088c-.466-.466-.466-.622-.155-.933a12.889,12.889,0,0,1,3.42-3.731c.311-.311.777-.466,1.865-.155a29.348,29.348,0,0,1,2.8.933l29.07,10.882a15.949,15.949,0,0,0,2.176.622,5.608,5.608,0,0,0,4.819-1.4c.777-.777,1.555-1.4,2.332-2.176l3.731-3.265c2.643-2.176,4.819-4.042,6.84-5.6a13.627,13.627,0,0,1,6.374-2.643,2.964,2.964,0,0,1,2.021.311C196.109,36.037,196.42,36.97,196.109,37.9Z" transform="translate(-124.068 -32.112)"/></g></g><g transform="translate(0 91.263)"><g transform="translate(0 0)"><path d="M41.311,227.513a1.672,1.672,0,0,0-2.176-.311L.582,256.583a1.672,1.672,0,0,0-.311,2.176,1.414,1.414,0,0,0,1.244.622,2.209,2.209,0,0,0,.933-.311L41,229.689A1.5,1.5,0,0,0,41.311,227.513Z" transform="translate(0 -226.931)"/></g></g><g transform="translate(20.053 98.569)"><path d="M92.435,251.577a1.884,1.884,0,0,0-2.332-.311L66.63,269.3a1.672,1.672,0,0,0-.311,2.176,1.414,1.414,0,0,0,1.244.622,2.209,2.209,0,0,0,.933-.311l23.629-18.033A1.672,1.672,0,0,0,92.435,251.577Z" transform="translate(-66.048 -250.995)"/></g><g transform="translate(12.125 119.556)"><path d="M46.581,320.7a1.672,1.672,0,0,0-2.176-.311l-3.886,2.954a1.672,1.672,0,0,0-.311,2.176,1.414,1.414,0,0,0,1.244.622,2.209,2.209,0,0,0,.933-.311l3.886-2.954A1.672,1.672,0,0,0,46.581,320.7Z" transform="translate(-39.936 -320.115)"/></g><g transform="translate(6.995 102.145)"><path d="M29.685,263.353a1.672,1.672,0,0,0-2.176-.311L23.622,266a1.672,1.672,0,0,0-.311,2.176,1.414,1.414,0,0,0,1.244.622,2.209,2.209,0,0,0,.933-.311l3.886-2.954A1.672,1.672,0,0,0,29.685,263.353Z" transform="translate(-23.04 -262.771)"/></g><g transform="translate(14.923 85.2)"><path d="M70.409,207.545a1.672,1.672,0,0,0-2.176-.311l-18.5,13.991a1.672,1.672,0,0,0-.311,2.176,1.919,1.919,0,0,0,1.244.622,2.209,2.209,0,0,0,.933-.311l18.5-13.991A1.672,1.672,0,0,0,70.409,207.545Z" transform="translate(-49.152 -206.963)"/></g></g></svg>