<svg xmlns="http://www.w3.org/2000/svg" width="93.84" height="93.84" viewBox="0 0 93.84 93.84"><path d="M97.04,92.075a1.533,1.533,0,0,1,.554-1.705l11.91-8.738a5.354,5.354,0,0,0-3.142-9.672l-14.772-.068a1.533,1.533,0,0,1-1.451-1.054L85.51,56.809a5.279,5.279,0,0,0-5.084-3.676h0a5.279,5.279,0,0,0-5.085,3.676L73.254,63.13a1.91,1.91,0,0,0,3.627,1.2l2.087-6.321a1.535,1.535,0,0,1,2.916,0l4.63,14.028a5.349,5.349,0,0,0,5.06,3.676l14.772.068a1.535,1.535,0,0,1,.9,2.773L95.335,87.29A5.349,5.349,0,0,0,93.4,93.238l4.5,14.075a1.535,1.535,0,0,1-2.359,1.714L83.553,100.4a5.35,5.35,0,0,0-6.255,0L65.3,109.029a1.535,1.535,0,0,1-2.359-1.713l4.5-14.077a5.35,5.35,0,0,0-1.933-5.948L53.6,78.552a1.535,1.535,0,0,1,.9-2.773l14.773-.068a1.91,1.91,0,0,0-.009-3.819h-.009l-14.773.068a5.355,5.355,0,0,0-3.143,9.672l11.91,8.738a1.534,1.534,0,0,1,.554,1.705l-4.5,14.077a5.278,5.278,0,0,0,1.953,5.963,5.279,5.279,0,0,0,6.275.014L79.529,103.5a1.533,1.533,0,0,1,1.793,0l11.992,8.63a5.354,5.354,0,0,0,8.228-5.977Z" transform="translate(-33.504 -36.222)"/><path d="M46.92,0a46.92,46.92,0,0,0,0,93.84,1.91,1.91,0,1,0,0-3.819,43.086,43.086,0,1,1,23.161-6.745,1.91,1.91,0,0,0,2.055,3.219A46.924,46.924,0,0,0,46.92,0Z"/></svg>