<svg xmlns="http://www.w3.org/2000/svg" width="53.118" height="93.738" viewBox="0 0 53.118 93.738"><g transform="translate(-110.933)"><g transform="translate(128.119 4.687)"><g transform="translate(0)"><path d="M221.986,25.6H206.363a1.562,1.562,0,1,0,0,3.124h15.623a1.562,1.562,0,0,0,0-3.124Z" transform="translate(-204.801 -25.6)"/></g></g><g transform="translate(153.115 4.687)"><path d="M344.458,25.6H342.9a1.562,1.562,0,1,0,0,3.124h1.562a1.562,1.562,0,0,0,0-3.124Z" transform="translate(-341.334 -25.6)"/></g><g transform="translate(131.243 79.677)"><g transform="translate(0)"><path d="M230.056,435.2h-3.879a4.316,4.316,0,0,0-4.31,4.31v.755a4.314,4.314,0,0,0,4.309,4.309h3.879a4.315,4.315,0,0,0,4.31-4.309v-.755A4.316,4.316,0,0,0,230.056,435.2Zm1.184,5.065a1.185,1.185,0,0,1-1.184,1.184h-3.879a1.186,1.186,0,0,1-1.186-1.184v-.755a1.186,1.186,0,0,1,1.186-1.186h3.878a1.186,1.186,0,0,1,1.186,1.186Z" transform="translate(-221.867 -435.2)"/></g></g><g transform="translate(110.933)"><path d="M158.405,0H116.581a5.655,5.655,0,0,0-5.648,5.648V88.09a5.655,5.655,0,0,0,5.648,5.648H158.4a5.654,5.654,0,0,0,5.648-5.646V5.648A5.654,5.654,0,0,0,158.405,0Zm2.522,88.09a2.526,2.526,0,0,1-2.522,2.523H116.581a2.526,2.526,0,0,1-2.523-2.522V5.648a2.526,2.526,0,0,1,2.523-2.523H158.4a2.526,2.526,0,0,1,2.523,2.523V88.09Z" transform="translate(-110.933)"/></g><g transform="translate(110.933 9.374)"><path d="M162.49,51.2H112.5a1.563,1.563,0,0,0-1.562,1.562v65.617a1.563,1.563,0,0,0,1.562,1.562H162.49a1.563,1.563,0,0,0,1.562-1.562V52.762A1.563,1.563,0,0,0,162.49,51.2Zm-1.562,65.617H114.058V54.325h46.869Z" transform="translate(-110.934 -51.2)"/></g></g></svg>